# xmcd
#
# Track frame offsets:
#	150
#	16944
#	33684
#	51800
#	74914
#	94308
#	107440
#	122029
#	142063
#	151950
#
# Disc length: 2392 seconds
#
# Revision: 1
# Processed by: cddbd v1.5.1PL0 Copyright (c) Steve Scherf et al.
# Submitted via: audiograbber 1.83.01
#
DISCID=8e09560a
DTITLE=Brothers Barton, The - Originals
DYEAR=2004
DGENRE=Bluegrass
TTITLE0=The Good Old Times
TTITLE1=Red Diamondville
TTITLE2=Journey Closer
TTITLE3=California Rain
TTITLE4=Stepping Stones
TTITLE5=A Woman Like You
TTITLE6=Warn-Out Heart
TTITLE7=Hot Club Of Oildale
TTITLE8=There's A Road Out There Waiting
TTITLE9=Sarah's Waltz
EXTD=
EXTT0=
EXTT1=
EXTT2=
EXTT3=
EXTT4=
EXTT5=
EXTT6=
EXTT7=
EXTT8=
EXTT9=
PLAYORDER=
